<?xml version="1.0" encoding="UTF-8"?>
<svg xmlns="http://www.w3.org/2000/svg" xmlns:xlink="http://www.w3.org/1999/xlink" width="2834.65" height="2834.65" viewBox="0 0 2834.65 2834.65">
<defs>
<clipPath id="clip-0">
<path clip-rule="nonzero" d="M 0 0 L 2834.648438 0 L 2834.648438 2834.648438 L 0 2834.648438 Z M 0 0 "/>
</clipPath>
<clipPath id="clip-1">
<path clip-rule="nonzero" d="M 575 1613 L 2260 1613 L 2260 1881 L 575 1881 Z M 575 1613 "/>
</clipPath>
<clipPath id="clip-2">
<path clip-rule="evenodd" d="M 575.359375 1768.671875 C 849.570312 1681.011719 1129.699219 1734.929688 1307.898438 1880.019531 C 1185.648438 1720.691406 919.925781 1650.371094 615.410156 1704.761719 C 588.710938 1747.359375 575.359375 1768.671875 575.359375 1768.671875 Z M 2259.121094 1768.671875 C 1984.910156 1681.011719 1704.78125 1734.929688 1526.578125 1880.019531 C 1648.828125 1720.691406 1914.550781 1650.371094 2219.070312 1704.761719 C 2245.769531 1747.359375 2259.121094 1768.671875 2259.121094 1768.671875 Z M 2145.988281 1668.160156 C 1919.5 1620.359375 1691.589844 1680.011719 1555.289062 1812.128906 C 1670.261719 1664.03125 1863.371094 1593.960938 2103.378906 1617.890625 C 2131.78125 1651.410156 2145.988281 1668.160156 2145.988281 1668.160156 Z M 688.488281 1668.160156 C 914.972656 1620.359375 1142.890625 1680.011719 1279.191406 1812.128906 C 1164.21875 1664.03125 971.105469 1593.960938 731.097656 1617.890625 C 702.691406 1651.410156 688.488281 1668.160156 688.488281 1668.160156 "/>
</clipPath>
<radialGradient id="radial-pattern-0" gradientUnits="userSpaceOnUse" cx="0" cy="0" fx="0" fy="0" r="42.80525" gradientTransform="matrix(1.496312, 0, 0, -0.503688, 979.454, 1711.96)">
<stop offset="0" stop-color="rgb(100%, 71.0495%, 16.729736%)" stop-opacity="1"/>
<stop offset="0.015625" stop-color="rgb(100%, 71.173096%, 16.499329%)" stop-opacity="1"/>
<stop offset="0.0273438" stop-color="rgb(100%, 71.278381%, 16.300964%)" stop-opacity="1"/>
<stop offset="0.0390625" stop-color="rgb(100%, 71.383667%, 16.104126%)" stop-opacity="1"/>
<stop offset="0.0507812" stop-color="rgb(100%, 71.490479%, 15.905762%)" stop-opacity="1"/>
<stop offset="0.0625" stop-color="rgb(100%, 71.595764%, 15.708923%)" stop-opacity="1"/>
<stop offset="0.0742188" stop-color="rgb(100%, 71.70105%, 15.510559%)" stop-opacity="1"/>
<stop offset="0.0859375" stop-color="rgb(100%, 71.806335%, 15.313721%)" stop-opacity="1"/>
<stop offset="0.0976562" stop-color="rgb(100%, 71.913147%, 15.115356%)" stop-opacity="1"/>
<stop offset="0.109375" stop-color="rgb(100%, 72.018433%, 14.918518%)" stop-opacity="1"/>
<stop offset="0.121094" stop-color="rgb(100%, 72.123718%, 14.720154%)" stop-opacity="1"/>
<stop offset="0.132812" stop-color="rgb(100%, 72.23053%, 14.523315%)" stop-opacity="1"/>
<stop offset="0.144531" stop-color="rgb(100%, 72.335815%, 14.324951%)" stop-opacity="1"/>
<stop offset="0.15625" stop-color="rgb(100%, 72.441101%, 14.128113%)" stop-opacity="1"/>
<stop offset="0.167969" stop-color="rgb(100%, 72.546387%, 13.929749%)" stop-opacity="1"/>
<stop offset="0.179688" stop-color="rgb(100%, 72.653198%, 13.73291%)" stop-opacity="1"/>
<stop offset="0.191406" stop-color="rgb(100%, 72.758484%, 13.534546%)" stop-opacity="1"/>
<stop offset="0.203125" stop-color="rgb(100%, 72.86377%, 13.337708%)" stop-opacity="1"/>
<stop offset="0.214844" stop-color="rgb(100%, 72.969055%, 13.139343%)" stop-opacity="1"/>
<stop offset="0.226562" stop-color="rgb(100%, 73.075867%, 12.942505%)" stop-opacity="1"/>
<stop offset="0.238281" stop-color="rgb(100%, 73.181152%, 12.744141%)" stop-opacity="1"/>
<stop offset="0.25" stop-color="rgb(100%, 73.286438%, 12.547302%)" stop-opacity="1"/>
<stop offset="0.261719" stop-color="rgb(100%, 73.428345%, 12.283325%)" stop-opacity="1"/>
<stop offset="0.28125" stop-color="rgb(100%, 73.603821%, 11.955261%)" stop-opacity="1"/>
<stop offset="0.300781" stop-color="rgb(100%, 73.780823%, 11.625671%)" stop-opacity="1"/>
<stop offset="0.320312" stop-color="rgb(100%, 73.956299%, 11.296082%)" stop-opacity="1"/>
<stop offset="0.339844" stop-color="rgb(100%, 74.133301%, 10.966492%)" stop-opacity="1"/>
<stop offset="0.359375" stop-color="rgb(100%, 74.308777%, 10.636902%)" stop-opacity="1"/>
<stop offset="0.378906" stop-color="rgb(100%, 74.467468%, 10.340881%)" stop-opacity="1"/>
<stop offset="0.394531" stop-color="rgb(100%, 74.607849%, 10.076904%)" stop-opacity="1"/>
<stop offset="0.410156" stop-color="rgb(100%, 74.749756%, 9.812927%)" stop-opacity="1"/>
<stop offset="0.425781" stop-color="rgb(100%, 74.890137%, 9.550476%)" stop-opacity="1"/>
<stop offset="0.441406" stop-color="rgb(100%, 75.030518%, 9.286499%)" stop-opacity="1"/>
<stop offset="0.457031" stop-color="rgb(100%, 75.172424%, 9.022522%)" stop-opacity="1"/>
<stop offset="0.472656" stop-color="rgb(100%, 75.312805%, 8.760071%)" stop-opacity="1"/>
<stop offset="0.488281" stop-color="rgb(100%, 75.453186%, 8.496094%)" stop-opacity="1"/>
<stop offset="0.503906" stop-color="rgb(100%, 75.576782%, 8.265686%)" stop-opacity="1"/>
<stop offset="0.515625" stop-color="rgb(100%, 75.682068%, 8.067322%)" stop-opacity="1"/>
<stop offset="0.527344" stop-color="rgb(100%, 75.788879%, 7.870483%)" stop-opacity="1"/>
<stop offset="0.539062" stop-color="rgb(100%, 75.894165%, 7.672119%)" stop-opacity="1"/>
<stop offset="0.550781" stop-color="rgb(100%, 75.999451%, 7.475281%)" stop-opacity="1"/>
<stop offset="0.5625" stop-color="rgb(100%, 76.104736%, 7.276917%)" stop-opacity="1"/>
<stop offset="0.574219" stop-color="rgb(100%, 76.211548%, 7.080078%)" stop-opacity="1"/>
<stop offset="0.585938" stop-color="rgb(100%, 76.316833%, 6.881714%)" stop-opacity="1"/>
<stop offset="0.597656" stop-color="rgb(100%, 76.422119%, 6.684875%)" stop-opacity="1"/>
<stop offset="0.609375" stop-color="rgb(100%, 76.528931%, 6.486511%)" stop-opacity="1"/>
<stop offset="0.621094" stop-color="rgb(100%, 76.634216%, 6.289673%)" stop-opacity="1"/>
<stop offset="0.632812" stop-color="rgb(100%, 76.774597%, 6.025696%)" stop-opacity="1"/>
<stop offset="0.652344" stop-color="rgb(100%, 76.951599%, 5.696106%)" stop-opacity="1"/>
<stop offset="0.671875" stop-color="rgb(100%, 77.127075%, 5.368042%)" stop-opacity="1"/>
<stop offset="0.691406" stop-color="rgb(100%, 77.285767%, 5.070496%)" stop-opacity="1"/>
<stop offset="0.707031" stop-color="rgb(100%, 77.427673%, 4.806519%)" stop-opacity="1"/>
<stop offset="0.722656" stop-color="rgb(100%, 77.568054%, 4.544067%)" stop-opacity="1"/>
<stop offset="0.738281" stop-color="rgb(100%, 77.708435%, 4.28009%)" stop-opacity="1"/>
<stop offset="0.753906" stop-color="rgb(100%, 77.832031%, 4.049683%)" stop-opacity="1"/>
<stop offset="0.765625" stop-color="rgb(100%, 77.937317%, 3.852844%)" stop-opacity="1"/>
<stop offset="0.777344" stop-color="rgb(100%, 78.042603%, 3.65448%)" stop-opacity="1"/>
<stop offset="0.789062" stop-color="rgb(100%, 78.149414%, 3.457642%)" stop-opacity="1"/>
<stop offset="0.800781" stop-color="rgb(100%, 78.2547%, 3.259277%)" stop-opacity="1"/>
<stop offset="0.8125" stop-color="rgb(100%, 78.359985%, 3.062439%)" stop-opacity="1"/>
<stop offset="0.824219" stop-color="rgb(100%, 78.501892%, 2.798462%)" stop-opacity="1"/>
<stop offset="0.84375" stop-color="rgb(100%, 78.677368%, 2.468872%)" stop-opacity="1"/>
<stop offset="0.863281" stop-color="rgb(100%, 78.83606%, 2.172852%)" stop-opacity="1"/>
<stop offset="0.878906" stop-color="rgb(100%, 78.959656%, 1.942444%)" stop-opacity="1"/>
<stop offset="0.890625" stop-color="rgb(100%, 79.064941%, 1.74408%)" stop-opacity="1"/>
<stop offset="0.902344" stop-color="rgb(100%, 79.170227%, 1.547241%)" stop-opacity="1"/>
<stop offset="0.914062" stop-color="rgb(100%, 79.312134%, 1.283264%)" stop-opacity="1"/>
<stop offset="0.933594" stop-color="rgb(100%, 79.470825%, 0.987244%)" stop-opacity="1"/>
<stop offset="0.949219" stop-color="rgb(100%, 79.592896%, 0.756836%)" stop-opacity="1"/>
<stop offset="0.960938" stop-color="rgb(100%, 79.734802%, 0.492859%)" stop-opacity="1"/>
<stop offset="0.980469" stop-color="rgb(100%, 79.910278%, 0.163269%)" stop-opacity="1"/>
<stop offset="1" stop-color="rgb(100%, 79.998779%, 0%)" stop-opacity="1"/>
</radialGradient>
</defs>
<g clip-path="url(#clip-0)">
<path fill-rule="evenodd" fill="rgb(100%, 100%, 100%)" fill-opacity="1" d="M 0 0 L 2834.648438 0 L 2834.648438 2834.648438 L 0 2834.648438 L 0 0 "/>
</g>
<g clip-path="url(#clip-1)">
<g clip-path="url(#clip-2)">
<path fill-rule="nonzero" fill="url(#radial-pattern-0)" d="M 575.359375 1880.019531 L 575.359375 1593.960938 L 2259.121094 1593.960938 L 2259.121094 1880.019531 Z M 575.359375 1880.019531 "/>
</g>
</g>
<path fill-rule="evenodd" fill="rgb(94.139099%, 52.146912%, 9.812927%)" fill-opacity="1" d="M 1497.519531 1934.070312 C 1733.300781 1759.71875 2082.339844 1751.191406 2322.449219 1843.601562 C 2375.53125 1941.238281 2383.738281 1956.890625 2396.550781 1983.078125 C 2154.671875 1777.859375 1681.769531 1847.660156 1514.421875 1962.800781 C 1505.328125 2029.460938 1471.828125 2044.421875 1417.238281 2043.089844 C 1362.640625 2044.421875 1329.148438 2029.460938 1320.058594 1962.800781 C 1152.699219 1847.660156 679.808594 1777.859375 437.929688 1983.078125 C 450.738281 1956.890625 458.945312 1941.238281 512.03125 1843.601562 C 752.136719 1751.191406 1101.179688 1759.710938 1336.960938 1934.070312 C 1344.578125 1959.308594 1363.578125 1976.601562 1386.78125 1985.941406 C 1401.730469 1991.960938 1432.75 1991.960938 1447.691406 1985.941406 C 1470.898438 1976.601562 1489.898438 1959.308594 1497.519531 1934.070312 "/>
<path fill-rule="evenodd" fill="rgb(66.601562%, 45.872498%, 0%)" fill-opacity="1" d="M 1423.46875 1551.78125 C 1500.441406 1463.070312 1613.121094 1402.480469 1607.558594 1283.671875 C 1631.558594 1422.46875 1514.011719 1492.550781 1447.058594 1583.5 C 1444.558594 1579.699219 1441.988281 1575.949219 1439.339844 1572.269531 C 1434.289062 1565.238281 1428.980469 1558.429688 1423.46875 1551.78125 Z M 1429.539062 1949.339844 C 1333.648438 1784.230469 1341.148438 1681.761719 1385.359375 1604.53125 C 1388.730469 1609.710938 1391.921875 1615.011719 1394.910156 1620.449219 C 1400.300781 1630.269531 1404.898438 1640.390625 1408.480469 1650.898438 L 1409.921875 1655.121094 C 1391.949219 1717.269531 1407.191406 1793.96875 1493.949219 1903.070312 C 1484.839844 1923.191406 1467.859375 1937.308594 1447.691406 1945.421875 C 1442.929688 1947.339844 1436.53125 1948.648438 1429.539062 1949.339844 Z M 1457.699219 1831.429688 C 1564.03125 1520.898438 1214.589844 1490.738281 1224.28125 1283.660156 C 1187.980469 1493.589844 1475.46875 1546.351562 1421.878906 1751.820312 C 1426.351562 1768.050781 1433.058594 1785.300781 1442.351562 1803.75 C 1446.851562 1812.691406 1451.949219 1821.910156 1457.699219 1831.429688 Z M 1402.449219 1949.070312 C 1404.789062 1945.011719 1407.070312 1940.980469 1409.308594 1936.988281 C 1399.101562 1918.410156 1390.160156 1900.511719 1382.398438 1883.238281 C 1378.421875 1874.371094 1374.769531 1865.71875 1371.441406 1857.269531 C 1362.128906 1871.230469 1351.558594 1885.761719 1339.589844 1900.910156 C 1348.441406 1922.179688 1365.910156 1937.019531 1386.78125 1945.421875 C 1390.980469 1947.109375 1396.429688 1948.328125 1402.449219 1949.070312 Z M 1413.039062 1333.300781 C 1447 1333.300781 1474.53125 1360.828125 1474.53125 1394.789062 C 1474.53125 1428.75 1447 1456.28125 1413.039062 1456.28125 C 1379.078125 1456.28125 1351.550781 1428.75 1351.550781 1394.789062 C 1351.550781 1360.828125 1379.078125 1333.300781 1413.039062 1333.300781 "/>
<path fill-rule="evenodd" fill="rgb(24.705505%, 65.818787%, 12.547302%)" fill-opacity="1" d="M 1676.511719 1489.539062 C 1654.589844 1463.320312 1637.539062 1446.988281 1625.359375 1440.558594 C 1625.25 1484.988281 1645.441406 1506.300781 1695.851562 1518.050781 C 1684.449219 1505.820312 1701.460938 1443.140625 1633.808594 1436.171875 C 1656.941406 1458.371094 1671.171875 1476.160156 1676.511719 1489.539062 "/>
<path fill-rule="evenodd" fill="rgb(24.705505%, 65.818787%, 12.547302%)" fill-opacity="1" d="M 1605.78125 1595.558594 C 1580.738281 1551.148438 1560.148438 1522.578125 1544.011719 1509.839844 C 1531.820312 1574.988281 1555.660156 1611.738281 1626.441406 1642.628906 C 1613.019531 1621.609375 1654.96875 1534.25 1557.601562 1505.691406 C 1585.519531 1544.519531 1601.578125 1574.480469 1605.78125 1595.558594 "/>
<path fill-rule="evenodd" fill="rgb(24.705505%, 65.818787%, 12.547302%)" fill-opacity="1" d="M 1220.300781 1595.558594 C 1245.351562 1551.148438 1265.929688 1522.578125 1282.070312 1509.839844 C 1294.261719 1574.988281 1270.421875 1611.738281 1199.640625 1642.628906 C 1213.058594 1621.609375 1171.109375 1534.25 1268.480469 1505.691406 C 1240.558594 1544.519531 1224.5 1574.480469 1220.300781 1595.558594 "/>
<path fill-rule="evenodd" fill="rgb(24.705505%, 65.818787%, 12.547302%)" fill-opacity="1" d="M 1149.570312 1489.539062 C 1171.488281 1463.320312 1188.539062 1446.988281 1200.71875 1440.558594 C 1200.828125 1484.988281 1180.640625 1506.300781 1130.230469 1518.050781 C 1141.628906 1505.828125 1124.621094 1443.140625 1192.269531 1436.171875 C 1169.140625 1458.371094 1154.910156 1476.160156 1149.570312 1489.539062 "/>
<path fill-rule="evenodd" fill="rgb(24.705505%, 65.818787%, 12.547302%)" fill-opacity="1" d="M 1051.859375 1384.28125 C 1110.191406 1359.339844 1152.140625 1346.679688 1177.699219 1346.300781 C 1140.480469 1419.890625 1089.148438 1438.160156 995.855469 1415.160156 C 1025.011719 1404.539062 1049.621094 1286.5 1167.421875 1331.921875 C 1110.46875 1349.171875 1071.949219 1366.628906 1051.859375 1384.28125 "/>
<path fill-rule="evenodd" fill="rgb(24.705505%, 65.818787%, 12.547302%)" fill-opacity="1" d="M 1132.53125 1090.898438 C 1167.890625 1116.398438 1190.210938 1136.609375 1199.5 1151.539062 C 1142.96875 1155.710938 1114.011719 1131.960938 1094.488281 1068.859375 C 1111.078125 1082.261719 1189.308594 1054.910156 1204.328125 1140.390625 C 1173.980469 1112.960938 1150.039062 1096.46875 1132.53125 1090.890625 L 1132.53125 1090.898438 "/>
<path fill-rule="evenodd" fill="rgb(24.705505%, 65.818787%, 12.547302%)" fill-opacity="1" d="M 1683.660156 1090.898438 C 1648.300781 1116.398438 1625.96875 1136.609375 1616.691406 1151.539062 C 1673.21875 1155.710938 1702.179688 1131.949219 1721.699219 1068.859375 C 1705.109375 1082.261719 1626.878906 1054.921875 1611.859375 1140.390625 C 1642.210938 1112.96875 1666.148438 1096.46875 1683.660156 1090.890625 L 1683.660156 1090.898438 "/>
<path fill-rule="evenodd" fill="rgb(24.705505%, 65.818787%, 12.547302%)" fill-opacity="1" d="M 956.78125 1222.820312 C 1047.441406 1212.679688 1110.449219 1212.660156 1145.820312 1222.75 C 1064.039062 1308.628906 985.765625 1312.488281 866.851562 1242.101562 C 911.402344 1239.570312 994.273438 1087.261719 1137.628906 1198.691406 C 1052.050781 1198.808594 991.765625 1206.851562 956.78125 1222.820312 "/>
<path fill-rule="evenodd" fill="rgb(24.705505%, 65.818787%, 12.547302%)" fill-opacity="1" d="M 1859.410156 1222.820312 C 1768.75 1212.679688 1705.738281 1212.660156 1670.371094 1222.75 C 1752.148438 1308.628906 1830.421875 1312.488281 1949.339844 1242.101562 C 1904.789062 1239.570312 1821.921875 1087.261719 1678.558594 1198.691406 C 1764.140625 1198.808594 1824.429688 1206.851562 1859.410156 1222.820312 "/>
<path fill-rule="evenodd" fill="rgb(24.705505%, 65.818787%, 12.547302%)" fill-opacity="1" d="M 1414.53125 1010.179688 C 1418.371094 1101.320312 1414.03125 1164.191406 1401.519531 1198.769531 C 1321.5 1111.238281 1323.070312 1032.890625 1401.519531 919.128906 C 1400.960938 963.75 1547.171875 1056.96875 1426.089844 1192.269531 C 1431.890625 1106.878906 1428.039062 1046.191406 1414.53125 1010.179688 "/>
<path fill-rule="evenodd" fill="rgb(24.705505%, 65.818787%, 12.547302%)" fill-opacity="1" d="M 1272.75 1183.851562 C 1311.839844 1226.441406 1335.421875 1258.679688 1343.480469 1280.550781 C 1268.949219 1270.820312 1237.699219 1232.210938 1229.261719 1145.039062 C 1247.210938 1166.890625 1356.140625 1152.328125 1352.730469 1267.359375 C 1320.671875 1223.609375 1294 1195.78125 1272.75 1183.851562 "/>
<path fill-rule="evenodd" fill="rgb(24.705505%, 65.818787%, 12.547302%)" fill-opacity="1" d="M 1543.441406 1183.851562 C 1504.351562 1226.441406 1480.769531 1258.679688 1472.699219 1280.550781 C 1547.238281 1270.820312 1578.480469 1232.210938 1586.929688 1145.039062 C 1568.980469 1166.890625 1460.050781 1152.339844 1463.460938 1267.359375 C 1495.519531 1223.621094 1522.191406 1195.769531 1543.441406 1183.851562 "/>
<path fill-rule="evenodd" fill="rgb(24.705505%, 65.818787%, 12.547302%)" fill-opacity="1" d="M 1210 923.359375 C 1251.75 988.519531 1275.429688 1036.441406 1281.03125 1067.128906 C 1185 1037.160156 1152.671875 979.070312 1161.578125 862.191406 C 1180.21875 895.128906 1327.191406 900.988281 1296.261719 1051.871094 C 1264.039062 986.808594 1235.28125 943.980469 1210 923.359375 "/>
<path fill-rule="evenodd" fill="rgb(24.705505%, 65.818787%, 12.547302%)" fill-opacity="1" d="M 1606.191406 923.359375 C 1564.441406 988.519531 1540.769531 1036.441406 1535.160156 1067.128906 C 1631.199219 1037.160156 1663.519531 979.070312 1654.621094 862.191406 C 1635.96875 895.128906 1489 900.988281 1519.929688 1051.871094 C 1552.160156 986.808594 1580.910156 943.980469 1606.191406 923.359375 "/>
<path fill-rule="evenodd" fill="rgb(24.705505%, 65.818787%, 12.547302%)" fill-opacity="1" d="M 1334.199219 829.339844 C 1341.429688 868 1343.429688 895.089844 1340.21875 910.609375 C 1300.699219 878.171875 1296.558594 844.640625 1323.058594 791.28125 C 1325.558594 810.351562 1393.671875 841.160156 1350.300781 906.328125 C 1347.539062 869.539062 1342.171875 843.871094 1334.199219 829.339844 "/>
<path fill-rule="evenodd" fill="rgb(24.705505%, 65.818787%, 12.547302%)" fill-opacity="1" d="M 1481.988281 829.339844 C 1474.761719 868 1472.761719 895.089844 1475.96875 910.621094 C 1515.488281 878.171875 1519.628906 844.640625 1493.128906 791.28125 C 1490.628906 810.351562 1422.519531 841.160156 1465.890625 906.328125 C 1468.648438 869.539062 1474.019531 843.871094 1481.988281 829.328125 L 1481.988281 829.339844 "/>
<path fill-rule="evenodd" fill="rgb(24.705505%, 65.818787%, 12.547302%)" fill-opacity="1" d="M 964.621094 1046.109375 C 1005.980469 1065.609375 1032.878906 1082.171875 1045.320312 1095.769531 C 987.835938 1110.921875 953.417969 1091.988281 921.171875 1030.691406 C 940.847656 1041.328125 1016.261719 998.109375 1048.148438 1083.351562 C 1011.589844 1060.898438 983.746094 1048.488281 964.621094 1046.109375 "/>
<path fill-rule="evenodd" fill="rgb(24.705505%, 65.818787%, 12.547302%)" fill-opacity="1" d="M 1851.570312 1046.109375 C 1810.21875 1065.609375 1783.320312 1082.171875 1770.871094 1095.769531 C 1828.359375 1110.921875 1862.769531 1091.988281 1895.019531 1030.691406 C 1875.339844 1041.328125 1799.941406 998.109375 1768.039062 1083.351562 C 1804.601562 1060.898438 1832.441406 1048.488281 1851.570312 1046.109375 "/>
<path fill-rule="evenodd" fill="rgb(24.705505%, 65.818787%, 12.547302%)" fill-opacity="1" d="M 1056.390625 918.929688 C 1097.738281 938.441406 1124.640625 954.988281 1137.089844 968.589844 C 1079.601562 983.738281 1045.191406 964.820312 1012.941406 903.519531 C 1032.621094 914.148438 1108.019531 870.929688 1139.921875 956.171875 C 1103.359375 933.730469 1075.519531 921.308594 1056.390625 918.929688 "/>
<path fill-rule="evenodd" fill="rgb(24.705505%, 65.818787%, 12.547302%)" fill-opacity="1" d="M 1759.800781 918.929688 C 1718.449219 938.441406 1691.550781 954.988281 1679.109375 968.589844 C 1736.589844 983.75 1771.011719 964.820312 1803.25 903.519531 C 1783.570312 914.148438 1708.171875 870.929688 1676.28125 956.171875 C 1712.828125 933.730469 1740.679688 921.308594 1759.800781 918.929688 "/>
<path fill-rule="evenodd" fill="rgb(24.705505%, 65.818787%, 12.547302%)" fill-opacity="1" d="M 1774.21875 1384.28125 C 1715.898438 1359.339844 1673.949219 1346.679688 1648.378906 1346.300781 C 1685.601562 1419.890625 1736.929688 1438.160156 1830.230469 1415.160156 C 1801.070312 1404.53125 1776.460938 1286.5 1658.660156 1331.921875 C 1715.609375 1349.179688 1754.128906 1366.628906 1774.21875 1384.28125 "/>
</svg>
